<?xml version="1.0" encoding="UTF-8"?>
<!DOCTYPE svg PUBLIC "-//W3C//DTD SVG 1.1//EN" "http://www.w3.org/Graphics/SVG/1.1/DTD/svg11.dtd">
<svg xmlns="http://www.w3.org/2000/svg" version="1.1" width="180px" height="180px" style="shape-rendering:geometricPrecision; text-rendering:geometricPrecision; image-rendering:optimizeQuality; fill-rule:evenodd; clip-rule:evenodd" xmlns:xlink="http://www.w3.org/1999/xlink">
<g><path style="opacity:0.591" fill="#dedede" d="M 78.5,25.5 C 80.1439,25.2865 81.6439,25.6198 83,26.5C 84.8333,30.1667 86.6667,33.8333 88.5,37.5C 85.9661,40.1664 83.7994,39.8331 82,36.5C 80.2856,37.0762 79.1189,38.2429 78.5,40C 77.552,40.4828 76.552,40.6495 75.5,40.5C 76.3426,35.4637 77.3426,30.4637 78.5,25.5 Z"/></g>
<g><path style="opacity:0.528" fill="#dedede" d="M 98.5,25.5 C 102.351,25.4548 105.684,26.6214 108.5,29C 108.133,31.2442 107.133,31.7442 105.5,30.5C 104.347,33.4461 103.347,36.4461 102.5,39.5C 101.311,40.4287 99.9778,40.762 98.5,40.5C 98.7819,37.0903 99.4486,33.757 100.5,30.5C 99.675,29.6143 98.675,29.281 97.5,29.5C 97.4326,28.0413 97.7659,26.7079 98.5,25.5 Z"/></g>
<g><path style="opacity:0.541" fill="#dedede" d="M 59.5,30.5 C 61.5901,30.4501 62.9234,31.4501 63.5,33.5C 60.8694,35.0046 61.2027,35.6713 64.5,35.5C 64.0948,37.6498 63.5948,39.6498 63,41.5C 65.3334,38.8494 67.1668,39.0161 68.5,42C 66.5362,43.9875 64.2029,45.4875 61.5,46.5C 58.662,42.8282 56.3287,38.8282 54.5,34.5C 56.4192,33.3875 58.0858,32.0542 59.5,30.5 Z"/></g>
<g><path style="opacity:0.545" fill="#dedede" d="M 119.5,33.5 C 120.833,33.5 122.167,33.5 123.5,33.5C 122.819,37.8683 121.152,41.8683 118.5,45.5C 117.311,46.4287 115.978,46.762 114.5,46.5C 115.649,42.0003 117.315,37.667 119.5,33.5 Z"/></g>
<g><path style="opacity:0.541" fill="#dedede" d="M 133.5,43.5 C 138.477,45.1519 138.81,47.6519 134.5,51C 136.432,51.1379 138.266,50.6379 140,49.5C 141.022,50.354 141.855,51.354 142.5,52.5C 138.444,54.8637 134.11,56.8637 129.5,58.5C 128.28,58.1131 127.613,57.2798 127.5,56C 129.926,51.9831 131.926,47.8165 133.5,43.5 Z"/></g>
<g><path style="opacity:0.569" fill="#dedede" d="M 41.5,44.5 C 44.9902,44.1506 47.3235,45.6506 48.5,49C 50.0249,50.0086 51.6916,50.5086 53.5,50.5C 53.5674,53.766 51.9008,55.266 48.5,55C 49.6469,56.9036 49.1469,58.4036 47,59.5C 43.3479,56.6815 39.8479,53.6815 36.5,50.5C 38.1897,48.4807 39.8564,46.4807 41.5,44.5 Z M 42.5,48.5 C 43.2891,48.7828 43.9558,49.2828 44.5,50C 43.184,50.5281 42.5173,50.0281 42.5,48.5 Z"/></g>
<g><path style="opacity:0.93" fill="#0caeb6" d="M 82.5,51.5 C 105.586,50.1172 120.419,60.4505 127,82.5C 129.252,105.527 119.419,120.361 97.5,127C 73.6373,129.66 58.4707,119.494 52,96.5C 50.2521,73.3074 60.4187,58.3074 82.5,51.5 Z"/></g>
<g><path style="opacity:0.54" fill="#dedede" d="M 29.5,62.5 C 31.0898,62.6282 32.4231,63.2949 33.5,64.5C 31.467,66.4515 31.1337,68.6182 32.5,71C 36.9252,71.9558 38.5918,70.1225 37.5,65.5C 38.8221,65.33 39.9887,65.6634 41,66.5C 41.6689,74.4985 38.1689,77.3318 30.5,75C 25.7878,71.2261 25.4545,67.0594 29.5,62.5 Z"/></g>
<g><path style="opacity:0.541" fill="#dedede" d="M 147.5,64.5 C 148.75,64.5774 149.583,65.244 150,66.5C 152.845,72.1737 151.012,74.8404 144.5,74.5C 141.758,70.3804 141.091,70.7137 142.5,75.5C 141.672,76.4147 140.672,77.0814 139.5,77.5C 137.506,74.8502 136.506,71.8502 136.5,68.5C 140.383,67.5412 144.05,66.2078 147.5,64.5 Z"/></g>
<g><path style="opacity:1" fill="#fafdfd" d="M 77.5,69.5 C 95.7829,67.4356 102.45,75.1023 97.5,92.5C 97.369,96.1657 98.869,97.1657 102,95.5C 103.014,85.4725 107.848,82.9725 116.5,88C 119.849,92.4784 120.349,97.3118 118,102.5C 110.746,108.592 102.579,110.759 93.5,109C 91.5125,107.681 90.3459,105.848 90,103.5C 89.6667,98.8333 89.3333,94.1667 89,89.5C 85.8981,84.0781 83.3981,84.2447 81.5,90C 86.9559,107.548 81.2892,112.882 64.5,106C 60.3371,103.179 58.8371,99.3454 60,94.5C 60.7387,93.4258 61.7387,92.7591 63,92.5C 64.9613,93.8966 67.1279,94.8966 69.5,95.5C 70.4419,95.3918 71.2753,95.0585 72,94.5C 71.6701,88.5206 71.6701,82.5206 72,76.5C 72.9668,73.3794 74.8001,71.046 77.5,69.5 Z"/></g>
<g><path style="opacity:0.429" fill="#dedfde" d="M 29.5,88.5 C 30.8333,88.5 32.1667,88.5 33.5,88.5C 33.5,89.8333 33.5,91.1667 33.5,92.5C 32.1667,92.5 30.8333,92.5 29.5,92.5C 29.5,91.1667 29.5,89.8333 29.5,88.5 Z"/></g>
<g><path style="opacity:0.4" fill="#dedede" d="M 144.5,88.5 C 147.5,88.1667 148.833,89.5 148.5,92.5C 144.56,93.234 143.227,91.9007 144.5,88.5 Z"/></g>
<g><path style="opacity:1" fill="#0fb1b8" d="M 115.5,92.5 C 117.337,92.6395 117.67,93.3061 116.5,94.5C 115.702,94.0431 115.369,93.3764 115.5,92.5 Z"/></g>
<g><path style="opacity:1" fill="#14b2ba" d="M 111.5,93.5 C 113.337,93.6395 113.67,94.3061 112.5,95.5C 111.702,95.0431 111.369,94.3764 111.5,93.5 Z"/></g>
<g><path style="opacity:0.545" fill="#dedede" d="M 135.5,103.5 C 136.833,103.5 138.167,103.5 139.5,103.5C 139.351,104.552 139.517,105.552 140,106.5C 141,105.167 142,105.167 143,106.5C 143.684,107.784 143.517,108.951 142.5,110C 144.934,110.333 145.934,109.166 145.5,106.5C 147.346,106.222 148.68,106.889 149.5,108.5C 148.423,110.729 147.756,113.063 147.5,115.5C 142.234,115.028 137.567,113.195 133.5,110C 134.609,107.953 135.276,105.787 135.5,103.5 Z"/></g>
<g><path style="opacity:0.556" fill="#dedede" d="M 33.5,104.5 C 41.4128,103.249 44.7461,106.416 43.5,114C 42.552,114.483 41.552,114.649 40.5,114.5C 40.9746,111.677 39.9746,109.677 37.5,108.5C 32.6312,110.294 32.2979,112.794 36.5,116C 34.7979,117.718 32.9645,117.885 31,116.5C 28.5226,111.669 29.356,107.669 33.5,104.5 Z"/></g>
<g><path style="opacity:0.55" fill="#dedede" d="M 129.5,117.5 C 132.471,120.754 134.971,124.42 137,128.5C 137.833,131.667 136.667,132.833 133.5,132C 129.489,130.661 125.822,128.828 122.5,126.5C 123.145,125.354 123.978,124.354 125,123.5C 126.599,125.036 128.433,125.536 130.5,125C 127.366,122.663 127.033,120.163 129.5,117.5 Z"/></g>
<g><path style="opacity:0.588" fill="#dedede" d="M 47.5,120.5 C 51.2258,121.056 53.5592,123.222 54.5,127C 51.3118,129.92 48.3118,133.087 45.5,136.5C 44.354,135.855 43.354,135.022 42.5,134C 45.489,129.778 44.989,128.945 41,131.5C 39.8315,130.991 38.9981,130.158 38.5,129C 41.9565,126.613 44.9565,123.78 47.5,120.5 Z M 48.5,125.5 C 49.2891,125.783 49.9558,126.283 50.5,127C 49.184,127.528 48.5173,127.028 48.5,125.5 Z"/></g>
<g><path style="opacity:0.545" fill="#dedede" d="M 114.5,131.5 C 118.111,134.679 120.778,138.679 122.5,143.5C 121.537,145.49 120.204,145.823 118.5,144.5C 116.374,141.081 114.374,137.581 112.5,134C 113.381,133.292 114.047,132.458 114.5,131.5 Z"/></g>
<g><path style="opacity:0.535" fill="#dedede" d="M 61.5,132.5 C 64.9682,132.73 67.6348,134.23 69.5,137C 67.6577,138.857 66.1577,141.024 65,143.5C 63.754,142.228 62.5874,141.895 61.5,142.5C 63.5589,143.951 64.5589,145.951 64.5,148.5C 60.7708,148.313 58.1042,146.647 56.5,143.5C 58.433,139.966 60.0997,136.3 61.5,132.5 Z"/></g>
<g><path style="opacity:0.537" fill="#dedede" d="M 100.5,137.5 C 102.167,137.5 103.833,137.5 105.5,137.5C 105.5,138.833 105.5,140.167 105.5,141.5C 104.448,141.351 103.448,141.517 102.5,142C 103.739,145.364 104.406,148.864 104.5,152.5C 103.167,152.5 101.833,152.5 100.5,152.5C 100.067,149.834 99.567,147.168 99,144.5C 97.1466,144.152 95.6466,142.818 94.5,140.5C 96.444,139.199 98.444,138.199 100.5,137.5 Z"/></g>
<g><path style="opacity:0.581" fill="#dedede" d="M 80.5,138.5 C 82.3109,138.572 83.6443,139.405 84.5,141C 86.1752,145.504 86.8419,150.004 86.5,154.5C 85.2638,153.754 83.9305,153.421 82.5,153.5C 82.5,152.5 82.5,151.5 82.5,150.5C 79.9963,151.639 77.3297,152.306 74.5,152.5C 75.9455,147.608 77.9455,142.941 80.5,138.5 Z"/></g>
</svg>
