<?xml version="1.0" standalone="no"?>
<!DOCTYPE svg PUBLIC "-//W3C//DTD SVG 20010904//EN"
 "http://www.w3.org/TR/2001/REC-SVG-20010904/DTD/svg10.dtd">
<svg version="1.0" xmlns="http://www.w3.org/2000/svg"
 width="1000.000000pt" height="1000.000000pt" viewBox="0 0 1000.000000 1000.000000"
 preserveAspectRatio="xMidYMid meet">
<metadata>
Created by potrace 1.14, written by Peter Selinger 2001-2017
</metadata>
<g transform="translate(0.000000,1000.000000) scale(0.100000,-0.100000)"
fill="#000000" stroke="none">
<path d="M4525 8525 c-5 -2 -30 -5 -55 -7 l-44 -4 -28 -124 c-15 -69 -34 -154
-42 -190 -33 -140 -86 -390 -86 -400 0 -12 124 -9 137 3 3 4 12 39 20 79 7 39
14 73 16 74 4 4 55 13 107 18 25 2 63 8 85 11 l40 7 35 -72 35 -72 70 7 c38 4
73 9 77 11 3 2 -38 91 -93 197 -54 105 -129 254 -166 329 -64 129 -77 144
-108 133z m71 -416 c-11 -3 -45 -9 -73 -12 -62 -7 -61 -12 -37 114 25 137 21
136 80 14 50 -106 51 -110 30 -116z"/>
<path d="M5525 8508 c-5 -14 -24 -99 -25 -108 0 -4 10 -6 23 -7 12 0 33 -3 47
-6 14 -3 42 -8 62 -12 41 -8 41 -10 16 -110 -6 -22 -12 -47 -13 -55 -2 -8 -13
-59 -25 -114 -12 -54 -23 -106 -25 -115 -2 -9 -12 -53 -23 -98 -11 -46 -19
-83 -18 -84 20 -9 138 -34 141 -29 2 3 6 17 9 31 2 13 14 62 25 109 11 47 22
96 25 110 2 14 18 87 35 163 17 76 31 140 31 143 0 7 51 -2 117 -20 29 -8 55
-11 57 -8 2 4 7 25 11 47 4 22 9 48 12 58 3 12 -1 17 -17 17 -19 0 -401 83
-443 96 -9 3 -19 0 -22 -8z"/>
<path d="M3370 8199 c-36 -22 -108 -62 -160 -91 -52 -28 -97 -53 -100 -55 -4
-4 17 -48 61 -123 15 -25 82 -144 149 -265 67 -121 124 -222 126 -224 3 -3
114 57 276 151 l68 39 -31 61 c-17 34 -34 57 -37 51 -8 -11 -201 -123 -213
-123 -8 0 -89 142 -89 156 0 5 36 28 80 52 44 24 80 46 80 49 0 5 -47 91 -56
102 -2 2 -41 -18 -88 -43 l-84 -46 -31 54 c-17 29 -31 56 -31 59 0 3 47 31
105 62 l105 56 -30 60 c-17 32 -31 59 -33 58 -1 0 -31 -18 -67 -40z"/>
<path d="M6677 7967 c-37 -67 -81 -147 -98 -177 -17 -30 -51 -90 -75 -134 -24
-43 -44 -82 -44 -86 0 -5 -3 -10 -7 -12 -10 -4 -43 -66 -43 -79 0 -5 4 -9 10
-9 5 0 32 -14 60 -31 28 -17 52 -30 54 -28 3 5 92 163 128 229 14 25 66 118
116 208 51 89 92 166 92 170 0 5 -87 56 -119 69 -3 2 -36 -52 -74 -120z"/>
<path d="M7441 7363 c-41 -71 -86 -148 -101 -173 -15 -25 -59 -99 -99 -165
-39 -66 -78 -129 -86 -141 -14 -19 -12 -24 26 -71 l40 -50 52 28 c29 15 72 35
97 44 25 9 54 21 65 26 11 4 63 25 115 44 52 20 109 43 127 51 17 8 34 14 38
14 4 0 21 6 38 14 18 7 55 21 82 31 28 10 54 21 58 25 11 9 -81 116 -96 112
-7 -2 -36 -14 -65 -27 -29 -14 -54 -25 -57 -25 -2 0 -43 -18 -90 -40 -47 -22
-89 -40 -92 -40 -3 0 -33 -14 -65 -30 -33 -17 -62 -29 -64 -27 -2 2 16 35 40
75 134 216 207 343 204 350 -5 14 -81 102 -87 102 -3 0 -39 -57 -80 -127z"/>
<path d="M2354 7425 c-28 -14 -73 -49 -100 -78 -64 -67 -137 -164 -132 -175 2
-8 444 -388 511 -441 15 -12 21 -9 57 30 21 24 39 49 40 55 0 7 -33 41 -72 75
-135 119 -124 104 -104 134 22 34 37 39 78 26 18 -5 65 -19 103 -31 39 -12 78
-23 88 -25 10 -2 26 -7 36 -10 11 -3 32 13 68 53 l51 59 -164 44 -164 44 0 50
c0 63 -27 122 -71 159 -73 62 -144 71 -225 31z m143 -138 c50 -45 46 -106 -12
-175 l-36 -42 -72 62 c-40 34 -73 66 -74 72 -4 15 46 70 85 93 38 23 77 20
109 -10z"/>
<path d="M4897 7064 c-1 -1 -38 -5 -81 -8 -418 -34 -825 -205 -1161 -486 -61
-51 -212 -207 -267 -276 -143 -179 -252 -372 -333 -589 -33 -85 -91 -310 -100
-384 -4 -30 -9 -63 -12 -75 -12 -49 -11 -433 2 -511 7 -44 16 -96 19 -115 15
-97 61 -259 103 -365 178 -450 480 -805 888 -1048 56 -33 249 -125 315 -150
111 -41 288 -88 390 -103 19 -3 40 -7 47 -9 23 -8 199 -18 298 -18 200 0 397
27 580 82 501 149 923 477 1192 926 145 242 240 516 277 800 14 105 15 442 3
505 -3 14 -8 43 -11 65 -38 266 -137 538 -286 780 -191 313 -500 594 -836 763
-174 87 -403 162 -574 187 -24 4 -47 8 -50 10 -16 9 -393 27 -403 19z"/>
<path d="M1673 6418 c-60 -66 -109 -224 -99 -317 16 -141 105 -237 266 -290
218 -72 403 36 450 263 7 33 9 81 5 111 l-6 53 -67 24 c-37 14 -68 24 -70 22
-2 -1 2 -12 8 -24 30 -57 2 -202 -52 -261 -54 -59 -123 -75 -218 -49 -145 38
-210 138 -173 265 22 74 84 165 113 165 24 0 2 12 -67 36 -37 13 -68 24 -69
24 0 0 -10 -10 -21 -22z"/>
<path d="M8185 6303 c-49 -19 -106 -41 -125 -48 -32 -13 -99 -38 -331 -127
-47 -18 -87 -37 -88 -41 -4 -10 118 -338 130 -351 5 -6 32 -2 68 9 l60 18 -14
26 c-15 29 -63 151 -75 193 -8 26 -6 28 58 52 112 43 109 44 145 -56 l32 -86
49 19 c27 10 53 22 58 27 4 4 -7 47 -26 95 l-34 86 62 24 61 24 14 -31 c7 -17
26 -66 41 -109 15 -43 30 -80 32 -83 3 -2 32 5 65 17 l61 20 -35 87 c-20 48
-50 127 -68 177 -18 49 -37 90 -41 91 -5 1 -49 -13 -99 -33z"/>
<path d="M1725 4998 c-32 -28 -39 -62 -20 -98 16 -31 33 -40 75 -40 71 0 101
89 46 136 -34 30 -67 30 -101 2z"/>
<path d="M8099 5007 c-48 -37 -47 -106 2 -136 82 -50 163 56 94 124 -26 27
-70 32 -96 12z"/>
<path d="M7556 4020 c-38 -100 -67 -182 -65 -184 2 -2 90 -36 194 -75 105 -40
204 -78 220 -85 75 -32 236 -88 241 -83 3 3 36 84 73 181 48 123 65 178 57
184 -6 5 -27 15 -46 22 -19 7 -41 18 -47 23 -9 6 -15 4 -19 -9 -5 -17 -49
-137 -76 -207 -8 -22 -15 -26 -32 -21 -11 3 -25 10 -30 15 -6 5 -15 9 -22 9
-7 0 -33 9 -58 20 l-45 19 23 63 c14 35 29 76 35 91 10 25 8 28 -17 38 -15 6
-42 17 -59 25 -18 7 -33 13 -33 11 0 -3 -43 -120 -58 -159 l-11 -26 -53 20
c-83 31 -82 14 -11 185 l31 71 -52 22 c-28 12 -56 24 -62 26 -5 3 -40 -74 -78
-176z"/>
<path d="M2020 4126 c-184 -40 -311 -171 -311 -323 -1 -107 38 -207 110 -280
38 -40 42 -41 73 -32 18 6 47 15 65 20 32 10 54 29 34 29 -21 0 -83 65 -107
112 -47 93 -42 184 14 247 60 67 204 109 285 82 90 -30 162 -194 134 -303 l-7
-27 67 25 c38 14 72 30 77 35 16 15 -10 144 -42 214 -78 165 -220 238 -392
201z"/>
<path d="M7217 3348 c-14 -18 -34 -42 -45 -54 -19 -20 -19 -20 39 -109 65
-101 77 -118 102 -150 9 -13 17 -25 17 -28 0 -3 20 -36 45 -73 25 -37 44 -69
42 -70 -2 -2 -104 37 -226 87 -122 49 -226 89 -231 87 -9 -4 -90 -100 -90
-108 0 -3 35 -18 78 -34 208 -77 512 -196 557 -217 l50 -24 46 49 45 49 -23
25 c-21 23 -85 123 -135 210 -10 19 -56 95 -101 170 -45 75 -91 155 -103 177
-12 21 -26 41 -31 42 -6 2 -22 -11 -36 -29z"/>
<path d="M2635 3149 c-71 -61 -150 -129 -175 -151 -25 -21 -84 -71 -132 -111
-47 -40 -89 -77 -91 -82 -3 -6 15 -32 39 -59 50 -57 36 -61 168 52 l85 74 25
-29 c14 -15 26 -33 26 -39 0 -7 -27 -69 -61 -138 -33 -70 -59 -130 -57 -135 6
-16 92 -111 100 -111 4 0 8 5 8 11 0 6 6 25 14 42 8 18 25 55 37 82 81 183 77
177 101 169 116 -37 250 46 272 170 7 41 -14 112 -52 169 -36 55 -160 197
-171 197 -3 0 -64 -50 -136 -111z m185 -129 c19 -17 40 -63 40 -88 0 -33 -48
-87 -84 -94 -35 -7 -79 15 -120 58 -20 21 -36 41 -36 44 0 7 41 46 113 108
l39 33 21 -28 c12 -15 24 -30 27 -33z"/>
<path d="M6436 2593 c-4 -5 -28 -20 -54 -34 -26 -14 -46 -30 -45 -36 3 -13
322 -585 333 -597 13 -13 126 49 122 68 -4 23 -328 600 -339 603 -5 2 -13 0
-17 -4z"/>
<path d="M3517 2563 c-3 -5 -69 -123 -147 -263 -79 -140 -154 -275 -167 -298
-14 -24 -23 -45 -21 -47 4 -4 68 -40 148 -83 36 -20 94 -53 129 -73 l65 -37
35 56 c19 30 31 57 25 59 -5 2 -58 31 -117 64 l-108 60 20 32 c10 18 30 52 44
77 13 24 29 46 33 47 5 2 45 -17 88 -42 44 -25 80 -44 82 -42 1 1 16 25 32 54
l31 52 -85 47 c-46 26 -84 51 -84 55 0 10 51 98 60 104 10 6 97 -40 168 -88
24 -16 45 -27 46 -25 28 38 65 112 59 118 -4 4 -48 29 -98 55 -49 26 -120 65
-157 86 -71 42 -74 43 -81 32z"/>
<path d="M5818 2305 c-7 -8 -20 -11 -260 -65 -98 -22 -187 -40 -199 -40 -17 0
-20 -4 -15 -27 4 -16 9 -41 12 -58 8 -43 14 -46 69 -29 28 8 64 17 81 20 l30
5 18 -78 c9 -43 26 -116 36 -163 11 -47 31 -139 46 -205 15 -66 28 -121 29
-123 3 -3 135 24 140 29 2 2 -26 132 -61 289 -35 157 -64 286 -64 286 0 1 19
5 43 9 23 4 51 10 62 12 11 2 29 5 40 7 22 4 23 20 9 94 -5 24 -12 41 -16 37z"/>
<path d="M4503 2155 c-16 -33 -91 -181 -166 -329 -75 -148 -137 -272 -137
-276 0 -4 25 -11 57 -15 31 -4 62 -9 69 -12 7 -3 26 25 49 72 36 75 37 77 68
71 18 -3 57 -8 87 -11 30 -3 64 -8 75 -10 11 -2 25 -4 31 -4 10 -1 37 -110 37
-148 0 -7 25 -14 61 -18 34 -4 69 -9 79 -12 23 -6 22 4 -18 177 -4 16 -25 109
-55 245 -10 44 -28 130 -41 190 -13 61 -24 112 -26 114 -1 2 -33 9 -72 15
l-69 12 -29 -61z m91 -230 c3 -16 10 -54 16 -84 14 -73 14 -72 -17 -66 -16 3
-48 8 -73 11 -25 3 -46 7 -48 9 -2 2 21 54 50 116 58 123 54 123 72 14z"/>
</g>
</svg>
